<?xml version="1.0" standalone="no"?><!DOCTYPE svg PUBLIC "-//W3C//DTD SVG 1.1//EN" "http://www.w3.org/Graphics/SVG/1.1/DTD/svg11.dtd"><svg t="1503646839916" class="icon" style="" viewBox="0 0 1024 1024" version="1.1" xmlns="http://www.w3.org/2000/svg" p-id="2374" xmlns:xlink="http://www.w3.org/1999/xlink" width="200" height="200"><defs><style type="text/css"></style></defs><path d="M851.2512 934.6048 176.9472 934.6048c-94.8224 0-105.3696-81.2032-105.3696-81.2032L71.5776 200.6016c0-86.016 89.9072-93.7984 89.9072-93.7984l282.7264 0-0.3072 37.6832L169.1648 144.4864c-50.2784 0-58.9824 42.5984-58.9824 42.5984L110.1824 842.752c0 49.2544 60.928 56.1152 60.928 56.1152l670.208 0c24.1664 0 23.2448-34.816 23.2448-34.816L864.5632 557.2608l35.1232 0 0 291.2256C899.6864 927.8464 851.2512 934.6048 851.2512 934.6048L851.2512 934.6048z" p-id="2375"></path><path d="M763.904 479.1296l-28.0576-28.0576 144.0768-146.0224L733.9008 305.0496C568.6272 324.4032 486.4 398.848 486.4 398.848 352.9728 495.616 352.9728 748.9536 352.9728 748.9536L313.344 748.9536c-2.8672-190.5664 75.4688-300.7488 75.4688-300.7488 113.152-176.0256 352.0512-181.76 352.0512-181.76l133.4272 0-139.264-150.9376 28.0576-26.112 189.5424 201.216L763.904 479.1296 763.904 479.1296z" p-id="2376"></path></svg>