<?xml version="1.0" standalone="no"?><!DOCTYPE svg PUBLIC "-//W3C//DTD SVG 1.1//EN" "http://www.w3.org/Graphics/SVG/1.1/DTD/svg11.dtd"><svg t="1503641839514" class="icon" style="" viewBox="0 0 1024 1024" version="1.1" xmlns="http://www.w3.org/2000/svg" p-id="2386" xmlns:xlink="http://www.w3.org/1999/xlink" width="200" height="200"><defs><style type="text/css"></style></defs><path d="M512 64c246.975 0 448 201.024 448 448S759.04 960 512 960C264.896 960 64 758.976 64 512 64 265.025 264.896 64 512 64z m0 836.288c214.272 0 388.672-174.208 388.673-388.288 0-214.079-174.4-388.224-388.672-388.224-214.335 0-388.736 174.208-388.736 388.224 0 214.079 174.336 388.288 388.736 388.288z" p-id="2387"></path><path d="M593.344 265.281c5.76 0 11.456 2.112 15.808 6.592 8.704 8.704 8.704 22.784 0 31.616L401.856 512.001l207.167 208.576c8.704 8.704 8.704 22.848 0 31.743-8.704 8.704-22.784 8.704-31.487 0L339.008 512l238.656-240.192c4.224-4.416 9.92-6.527 15.679-6.528z" p-id="2388"></path></svg>