<?xml version="1.0" standalone="no"?><!DOCTYPE svg PUBLIC "-//W3C//DTD SVG 1.1//EN" "http://www.w3.org/Graphics/SVG/1.1/DTD/svg11.dtd"><svg t="1503554427119" class="icon" style="" viewBox="0 0 1024 1024" version="1.1" xmlns="http://www.w3.org/2000/svg" p-id="2381" xmlns:xlink="http://www.w3.org/1999/xlink" width="200" height="200"><defs><style type="text/css"></style></defs><path d="M1012.49024 173.93664c-14.9504-14.92992-40.98048-14.92992-55.9104 0l-593.5104 593.53088L67.46112 471.90016c-14.92992-14.92992-40.96-14.92992-55.88992 0-7.45472 7.45472-11.5712 17.38752-11.5712 27.93472s4.11648 20.48 11.5712 27.93472l321.90464 321.92512c7.35232 7.35232 17.48992 11.55072 27.87328 11.55072h0.08192c4.79232 0 9.5232-0.86016 12.47232-2.10944 7.63904-1.57696 14.56128-5.30432 20.02944-10.79296l618.53696-618.53696c15.38048-15.36 15.38048-40.448 0.02048-55.86944z m-651.12064 677.2736z" fill="#231815" p-id="2382"></path></svg>